<svg xmlns="http://www.w3.org/2000/svg" xmlns:xlink="http://www.w3.org/1999/xlink" viewBox="0 0 463.72 80.27"><defs><style>.cls-1{fill:url(#linear-gradient);}</style><linearGradient id="linear-gradient" x1="231.86" x2="231.86" y2="80.27" gradientUnits="userSpaceOnUse"><stop offset="0" stop-color="#202224"/><stop offset="0.15" stop-color="#202224"/><stop offset="0.28" stop-color="#202224"/><stop offset="0.4" stop-color="#202224"/><stop offset="0.53" stop-color="#202224"/><stop offset="0.65" stop-color="#202224"/><stop offset="0.77" stop-color="#202224"/><stop offset="0.88" stop-color="#202224"/><stop offset="1" stop-color="#202224"/><stop offset="1"/></linearGradient></defs><g id="Layer_2" data-name="Layer 2"><g id="Layer_1-2" data-name="Layer 1"><path class="cls-1" d="M52.29,65.54l-4-4.05L47,60.2,5.34,18.53V56.46l-5,5H0V5.65L47,52.59V14.67l5.34-5.34ZM78.62,38.05l5.16-3.31V67.88a12.28,12.28,0,0,1-2.58,7.54l-.12.13a15.52,15.52,0,0,1-2.46,2.39A12.42,12.42,0,0,1,61,74.69l4.6-2.21a7,7,0,0,0,5.77,2.76,7.25,7.25,0,0,0,7.24-6.32,5.43,5.43,0,0,0,.06-1,5.66,5.66,0,0,0-.06-1V59a11.87,11.87,0,0,1-4.78,2.21,3.58,3.58,0,0,1-1.11.18,9.41,9.41,0,0,1-1.35.12H71.2a11,11,0,0,1-2.83-.36,7.42,7.42,0,0,1-1.47-.43,12.63,12.63,0,0,1-1.29-.62,13.24,13.24,0,0,1-1.29-.67v-.06c-.43-.31-.8-.62-1.16-.92a3.36,3.36,0,0,1-.92-.92,4.66,4.66,0,0,1-.74-.86,5.68,5.68,0,0,1-.86-1.23A6.58,6.58,0,0,1,60,54.37a8.88,8.88,0,0,1-.49-1.22,10.83,10.83,0,0,1-.43-1.41,16.55,16.55,0,0,1-.25-2.46,11.07,11.07,0,0,1,.61-3.74A12.41,12.41,0,0,1,71.32,36.7a12.19,12.19,0,0,1,7.3,2.45ZM75.37,55.36a7.32,7.32,0,0,0,3.25-6.14v-.61a7.33,7.33,0,0,0-11-5.71c-.19.06-.31.24-.49.31s-.19.12-.31.24a5.41,5.41,0,0,0-1.17,1.17l-.43.55a1,1,0,0,0-.36.49,5.56,5.56,0,0,0-.5,1,7.43,7.43,0,0,0,3.81,9.15,6.68,6.68,0,0,0,4.73.49,5.5,5.5,0,0,0,1.41-.43A11.68,11.68,0,0,0,75.37,55.36Zm27.56-20.81a13.47,13.47,0,1,1-13.44,13.5A13.5,13.5,0,0,1,102.93,34.55Zm0,21.54a7.93,7.93,0,0,0,8-8,7.65,7.65,0,0,0-1.11-4,8,8,0,1,0-6.87,12Zm-3.07-31a18.37,18.37,0,0,1,13.56,3l-5.09-8Zm0,0a18.37,18.37,0,0,1,13.56,3l-5.09-8ZM147.12,9H153l20.32,52.47H167.5L160.38,43l-11.72-30.5-.49-1.17Zm51.19-4.48L205.79,0l-4.91,12.52-18.9,49h-5.77ZM218.16,35.9l5.89-3.13V61.49l-5.89-3.13a13.68,13.68,0,1,1,0-22.46Zm0,13.44a8.94,8.94,0,0,0,0-4.42,8.07,8.07,0,1,0,0,4.42ZM221.29,23a18.52,18.52,0,0,1-7.12-.24A18.15,18.15,0,0,1,207.79,20l5.09,8Zm22.58,13.81a13.66,13.66,0,0,1,8,24.67V50.57a8,8,0,0,0-4-6.87,8.08,8.08,0,0,0-12.16,6.87V61.49h-5.58V38.6l5.58-4.05v4.91A13.63,13.63,0,0,1,243.87,36.82Zm79-21.91H308.14V51.74l-5.34,9.75V14.91H288.19V9.33h34.68Zm9.07,27.74-5.34,2.76a6.78,6.78,0,0,0-.67-.36,2,2,0,0,0-.56-.25,2.18,2.18,0,0,0-.67-.31,5.2,5.2,0,0,0-.92-.24,6.29,6.29,0,0,0-1-.13V61.49h-5.59V38.23l5.59-3.68v5.83l2.33-1.53a2,2,0,0,1,.8.18,3,3,0,0,1,.73.25,12.42,12.42,0,0,1,2.15.92c.25.18.55.3.86.49.12.12.31.24.43.37a4.07,4.07,0,0,1,.67.49s.07,0,.07.06A10.38,10.38,0,0,1,331.94,42.65Zm33.39,18.84-5.65-2.57a12.91,12.91,0,0,1-5,2.2,9.65,9.65,0,0,1-1.9.31,6.82,6.82,0,0,1-1.1.06,14.11,14.11,0,0,1-3.26-.37c-.37-.12-.67-.18-1-.3a17.19,17.19,0,0,1-1.9-.8,5.72,5.72,0,0,1-.92-.55,7.42,7.42,0,0,1-.92-.62,14.47,14.47,0,0,1-1.17-1,13.46,13.46,0,0,1-4.42-10V34.24h5.59v14.3a8,8,0,0,0,.86,2.89,7.6,7.6,0,0,0,2,2.58,7.9,7.9,0,0,0,5.16,1.9,3.51,3.51,0,0,0,.79-.06,5.26,5.26,0,0,0,1.41-.25c.07-.06.19-.06.25-.12a1.45,1.45,0,0,0,.68-.25,2.28,2.28,0,0,0,.67-.3,2.92,2.92,0,0,0,.68-.43,2.47,2.47,0,0,0,.61-.43,3.39,3.39,0,0,0,.43-.37,8.82,8.82,0,0,0,2.15-3.44c.06-.24.12-.49.18-.8a2.17,2.17,0,0,0,.12-.67c0-.31.06-.61.06-.92V37.68L361.46,36l-1.72-1.72,5.59-4.84ZM396.94,41v.06a14.11,14.11,0,0,1,1.84,6.69v.18a13.59,13.59,0,0,1-2.33,7.61,13.81,13.81,0,0,1-10.8,6H385a13.66,13.66,0,0,1-13.13-10.43c-.06-.31-.12-.55-.18-.86a3.19,3.19,0,0,0-.13-.8v-.67a.06.06,0,0,1-.06-.06v-.86a13.66,13.66,0,0,1,22-10.68l.06-.12,5.28-7.68ZM376,21.17a23.37,23.37,0,0,1,5.77,2.21,21.79,21.79,0,0,1,4.85,3.81l-2.82-6Zm14.36,20.5c-.12-.12-.24-.18-.3-.31a8.13,8.13,0,0,0-12.95,5.4v.07a8.08,8.08,0,1,0,16.08,1.1v-.12a8.86,8.86,0,0,0-1.11-3.93l.12.06A7.22,7.22,0,0,0,390.37,41.67Zm28.24-4.85a13.66,13.66,0,0,1,8,24.67V50.57a8,8,0,0,0-4-6.87,8.07,8.07,0,0,0-12.15,6.87V61.49h-5.59V38.6l5.59-4.05v4.91A13.58,13.58,0,0,1,418.61,36.82Zm39.95,1.23,5.16-3.31V67.88a12.28,12.28,0,0,1-2.58,7.54l-.12.13a15.52,15.52,0,0,1-2.46,2.39A12.42,12.42,0,0,1,441,74.69l4.6-2.21a7,7,0,0,0,5.77,2.76,7.24,7.24,0,0,0,7.24-6.32,5.43,5.43,0,0,0,.06-1,5.66,5.66,0,0,0-.06-1V59a11.87,11.87,0,0,1-4.78,2.21,3.58,3.58,0,0,1-1.11.18,9.41,9.41,0,0,1-1.35.12h-.18a11.15,11.15,0,0,1-2.83-.36,7.42,7.42,0,0,1-1.47-.43,12.63,12.63,0,0,1-1.29-.62,13.24,13.24,0,0,1-1.29-.67v-.06c-.43-.31-.79-.62-1.16-.92a3.36,3.36,0,0,1-.92-.92,4.66,4.66,0,0,1-.74-.86,5.68,5.68,0,0,1-.86-1.23,6.58,6.58,0,0,1-.61-1.11,8.88,8.88,0,0,1-.49-1.22,10.83,10.83,0,0,1-.43-1.41,16.55,16.55,0,0,1-.25-2.46,11.08,11.08,0,0,1,.62-3.74,12.4,12.4,0,0,1,11.84-8.84,12.19,12.19,0,0,1,7.3,2.45Zm-3.25,17.31a7.32,7.32,0,0,0,3.25-6.14v-.61a7.33,7.33,0,0,0-11-5.71c-.19.06-.31.24-.49.31s-.19.12-.31.24a5.41,5.41,0,0,0-1.17,1.17l-.43.55a1,1,0,0,0-.36.49,5,5,0,0,0-.49,1,7.41,7.41,0,0,0,3.8,9.15,6.68,6.68,0,0,0,4.73.49,5.5,5.5,0,0,0,1.41-.43A10.44,10.44,0,0,0,455.31,55.36Z" fill="#202224"/></g></g></svg>